# xmcd
#
# Track frame offsets: 
#        150
#        15694
#        28664
#        41603
#        57480
#        68335
#        84184
#        96832
#        111467
#        126020
#        134561
#        148683
#        162207
#        174729
#        186109
#        198037
#        211055
#        222393
#        233790
#        245236
#        255569
#        266018
#
# Disc length: 3688 seconds
#
# Revision: 0
# Processed by: cddbd v1.5.2PL0 Copyright (c) Steve Scherf et al.
# Submitted via: ExactAudioCopy v0.99pb3
#
DISCID=400e6616
DTITLE=Arbee Stidham - The Complete Recordings Volume 2 (1951 - 1957)
DYEAR=2008
DGENRE=Blues
TTITLE0=Feeling Blue And Low
TTITLE1=I've Got News For You Baby
TTITLE2=Bad Dreams Blues
TTITLE3=Why Did I Fall In Love With You
TTITLE4=I'm In The Mood
TTITLE5=I Want To Rock
TTITLE6=Someone To Tell My Trouble To
TTITLE7=Mr Comissioner (master)
TTITLE8=Mr Comissioner (alt. take)
TTITLE9=Baby Stop The Clock
TTITLE10=Blues Why Do You Kick On Me
TTITLE11=Don't Set Your Cap For Me
TTITLE12=I Don't Play
TTITLE13=I'll Always Remember You
TTITLE14=Meet Me Half Way
TTITLE15=When I Find My Baby
TTITLE16=Please Let It Be Me
TTITLE17=Look Me Straight In The Eye (alt. take)
TTITLE18=Look Me Straight In The Eye (master)
TTITLE19=I Stayed Away Too Long (alt. take)
TTITLE20=I Stayed Away Too Long (2nd master)
TTITLE21=I Stayed Away Too Long (master)
EXTD=
EXTT0=
EXTT1=
EXTT2=
EXTT3=
EXTT4=
EXTT5=
EXTT6=
EXTT7=
EXTT8=
EXTT9=
EXTT10=
EXTT11=
EXTT12=
EXTT13=
EXTT14=
EXTT15=
EXTT16=
EXTT17=
EXTT18=
EXTT19=
EXTT20=
EXTT21=
PLAYORDER=
